PathFileType	4	(X/Y/Z)	C:\Users\Caesar\Desktop\毕业设计\1-评估老年人缺少的力\Data\s2\T_01_fixed.trc	Maker trajectories (.TRC) by Lee-Son ToolBox																																																																											
DataRate	CameraRate	NumFrames	NumMarkers	Units	OrigDataRate	OrigDataStartFrame	OrigNumFrames																																																																								
100	100	17	26	mm	100	876	1000																																																																								
Frame#	Time	HEAD			C7			T10			STERN			LSHO			LELB			RSHO			RELB			LASI			RASI			LPSI			RPSI			LHIP			LTHI			LKNE			LTIB			LANK			LHEE			LTOE			RHIP			RTHI			RKNE			RTIB			RANK			RHEE			RTOE		
		X1	Y1	Z1	X2	Y2	Z2	X3	Y3	Z3	X4	Y4	Z4	X5	Y5	Z5	X6	Y6	Z6	X7	Y7	Z7	X8	Y8	Z8	X9	Y9	Z9	X10	Y10	Z10	X11	Y11	Z11	X12	Y12	Z12	X13	Y13	Z13	X14	Y14	Z14	X15	Y15	Z15	X16	Y16	Z16	X17	Y17	Z17	X18	Y18	Z18	X19	Y19	Z19	X20	Y20	Z20	X21	Y21	Z21	X22	Y22	Z22	X23	Y23	Z23	X24	Y24	Z24	X25	Y25	Z25	X26	Y26	Z26
																																																																															
876	8.75	1060.44	1664.93	1628.77	864.749	1526.58	1560.18	772.777	1367.13	1594.99	1007.44	1366.4	1564.77	891.619	1492.67	1421.03	963.98	1171.07	1291.24	944.29	1506.82	1734.23	956.455	1152.61	1830.26	924.401	1067.34	1456.16	922.844	1061.12	1708.68	757.395	1113.1	1530.71	766.761	1104.43	1644.83	853.925	984.103	1405.97	1020.43	769.359	1431.1	1026.6	615.345	1440.02	1107.73	437.529	1447.03	1143.71	272.951	1462.79	1114.22	227.503	1479.79	1322.84	311.405	1491.53	871.38	985.682	1746.58	866.579	823.997	1722.1	766.784	624.986	1682	743.851	522.654	1683.7	622.886	267.268	1638.97	574.615	238.387	1619.13	804.239	223.068	1594.83
877	8.76	1060.47	1661.81	1628.18	864.67	1523.56	1559.07	772.719	1364.01	1594.01	1007.1	1363.3	1564.2	891.582	1489.6	1420.07	963.807	1167	1291.23	943.888	1503.91	1733.63	956.236	1149.39	1829.61	925.718	1064.44	1456	923.571	1058.16	1708.61	758.259	1109.38	1529.92	767.383	1100.71	1644.03	855.928	980.631	1405.79	1021.48	765.327	1431.78	1028.44	612.234	1441.88	1111.06	435.075	1450.09	1147.99	271.437	1466.32	1118.76	226.55	1483.22	1326.68	310.617	1496.4	871.807	982.544	1746.17	865.528	821.255	1721.61	764.449	623.146	1681.44	738.656	521.26	1683.37	609.696	269.005	1639.49	560.674	240.941	1619.69	789.733	222.354	1595.19
878	8.77	1060.49	1658.94	1627.54	864.605	1520.73	1557.91	772.787	1360.95	1592.89	1006.92	1360.52	1563.51	891.535	1486.76	1419.05	963.665	1163.17	1291.27	943.422	1501.16	1732.98	956.034	1146.36	1828.91	927.303	1061.85	1455.78	924.58	1055.26	1708.5	759.393	1105.93	1529.14	768.323	1097.17	1643.24	858.318	977.616	1405.49	1023.39	762.219	1432.81	1030.77	609.641	1443.68	1113.06	432.569	1453.2	1148.97	269.875	1469.71	1119.42	226.042	1486.47	1327.46	307.271	1501.28	872.556	979.392	1745.62	865.093	818.497	1721.03	762.939	621.215	1680.92	734.188	519.895	1683.07	596.871	271.249	1640.19	547.061	244.235	1620.43	775.141	221.663	1595.57
879	8.78	1060.5	1656.39	1626.88	864.566	1518.15	1556.7	772.979	1358.03	1591.67	1006.92	1358.14	1562.72	891.469	1484.22	1417.98	963.565	1159.68	1291.34	942.906	1498.65	1732.3	955.849	1143.58	1828.17	929.125	1059.63	1455.48	925.834	1052.48	1708.34	760.764	1102.82	1528.39	769.55	1093.87	1642.46	861.061	975.155	1405.08	1026.08	760.083	1434.17	1033.58	607.62	1445.35	1113.91	430.086	1456.21	1146.94	268.283	1472.78	1116.54	225.895	1489.38	1325.51	301.623	1505.97	873.592	976.269	1744.9	865.281	815.748	1720.36	762.342	619.197	1680.47	730.542	518.587	1682.83	584.543	274.108	1641.1	533.923	248.433	1621.37	760.469	220.993	1596
880	8.79	1060.5	1654.22	1626.18	864.562	1515.87	1555.48	773.287	1355.3	1590.38	1007.12	1356.21	1561.83	891.385	1482.03	1416.89	963.519	1156.64	1291.39	942.363	1496.43	1731.58	955.674	1141.15	1827.43	931.144	1057.85	1455.12	927.286	1049.88	1708.11	762.327	1100.13	1527.66	771.015	1090.89	1641.71	864.101	973.313	1404.55	1029.45	758.896	1435.8	1036.81	606.201	1446.79	1113.75	427.717	1458.99	1142.31	266.718	1475.4	1110.58	226.034	1491.82	1321.16	294.121	1510.28	874.872	973.229	1744.03	866.108	813.041	1719.58	762.773	617.096	1680.09	727.845	517.366	1682.66	572.875	277.698	1642.19	521.443	253.709	1622.5	745.735	220.344	1596.47
881	8.8	1060.48	1652.49	1625.47	864.598	1513.95	1554.26	773.697	1352.84	1589.05	1007.5	1354.77	1560.87	891.289	1480.26	1415.8	963.537	1154.11	1291.38	941.819	1494.56	1730.84	955.502	1139.12	1826.71	933.307	1056.55	1454.71	928.879	1047.51	1707.8	764.022	1097.9	1526.96	772.655	1088.28	1640.99	867.352	972.126	1403.89	1033.32	758.58	1437.65	1040.35	605.379	1447.95	1112.73	425.552	1461.39	1135.49	265.248	1477.49	1102.08	226.385	1493.69	1314.78	285.355	1514.06	876.346	970.333	1743	867.593	810.417	1718.7	764.358	614.921	1679.81	726.241	516.26	1682.6	562.062	282.133	1643.46	509.838	260.235	1623.83	730.984	219.719	1596.98
882	8.81	1060.44	1651.22	1624.75	864.671	1512.42	1553.06	774.189	1350.73	1587.71	1008.04	1353.83	1559.85	891.2	1478.94	1414.72	963.625	1152.17	1291.26	941.306	1493.1	1730.07	955.325	1137.54	1826.04	935.553	1055.74	1454.26	930.549	1045.42	1707.38	765.785	1096.16	1526.28	774.397	1086.07	1640.29	870.709	971.589	1403.12	1037.46	759.014	1439.58	1044.04	605.109	1448.77	1110.97	423.657	1463.34	1126.9	263.94	1479.01	1091.56	226.876	1494.97	1306.7	275.976	1517.16	877.962	967.648	1741.82	869.757	807.926	1717.73	767.221	612.684	1679.62	725.877	515.298	1682.66	552.318	287.514	1644.9	499.351	268.163	1625.34	716.302	219.133	1597.54
883	8.82	1060.37	1650.42	1624.03	864.771	1511.32	1551.92	774.739	1349.02	1586.41	1008.7	1353.4	1558.81	891.136	1478.1	1413.68	963.784	1150.86	1291.01	940.849	1492.06	1729.3	955.137	1136.47	1825.45	937.813	1055.43	1453.76	932.233	1043.67	1706.84	767.549	1094.93	1525.62	776.164	1084.3	1639.61	874.047	971.664	1402.25	1041.61	760.046	1441.48	1047.69	605.298	1449.22	1108.5	422.059	1464.79	1116.92	262.842	1479.97	1079.55	227.441	1495.7	1297.2	266.618	1519.53	879.667	965.245	1740.51	872.61	805.625	1716.68	771.461	610.411	1679.52	726.888	514.51	1682.85	543.864	293.917	1646.48	490.239	277.6	1627.04	701.82	218.613	1598.17
884	8.83	1060.28	1650.11	1623.34	864.88	1510.67	1550.86	775.315	1347.78	1585.16	1009.43	1353.44	1557.78	891.119	1477.77	1412.7	964.015	1150.19	1290.62	940.471	1491.47	1728.53	954.936	1135.91	1824.97	940.017	1055.62	1453.22	933.868	1042.31	1706.16	769.254	1094.18	1524.97	777.884	1082.96	1638.93	877.238	972.282	1401.28	1045.49	761.495	1443.18	1051	605.82	1449.31	1105.33	420.744	1465.74	1105.86	261.978	1480.47	1066.49	228.019	1495.96	1286.56	257.829	1521.18	881.413	963.191	1739.08	876.143	803.578	1715.58	777.132	608.14	1679.52	729.376	513.924	1683.15	536.916	301.38	1648.17	482.756	288.586	1628.89	687.733	218.204	1598.87
885	8.84	1060.15	1650.25	1622.69	864.971	1510.48	1549.91	775.884	1347.04	1584	1010.17	1353.93	1556.8	891.165	1477.93	1411.8	964.312	1150.18	1290.06	940.182	1491.33	1727.79	954.726	1135.87	1824.62	942.098	1056.26	1452.63	935.402	1041.36	1705.37	770.845	1093.9	1524.31	779.49	1082.07	1638.24	880.158	973.359	1400.24	1048.79	763.159	1444.55	1053.67	606.523	1449.07	1101.38	419.664	1466.25	1093.99	261.345	1480.59	1052.75	228.562	1495.85	1274.99	250.023	1522.17	883.155	961.548	1737.56	880.328	801.854	1714.47	784.23	605.931	1679.63	733.395	513.575	1683.57	531.664	309.895	1649.94	477.133	301.072	1630.87	674.296	217.975	1599.67
886	8.85	1059.99	1650.82	1622.11	865.019	1510.74	1549.08	776.411	1346.83	1582.94	1010.88	1354.84	1555.89	891.285	1478.57	1410.99	964.671	1150.82	1289.35	939.979	1491.62	1727.08	954.512	1136.34	1824.42	943.992	1057.31	1451.97	936.792	1040.85	1704.44	772.276	1094.06	1523.63	780.93	1081.63	1637.54	882.698	974.805	1399.15	1051.22	764.828	1445.46	1055.37	607.252	1448.54	1096.56	418.752	1466.39	1081.51	260.922	1480.48	1038.61	229.037	1495.52	1262.7	243.459	1522.61	884.855	960.37	1735.99	885.111	800.526	1713.39	792.688	603.863	1679.83	738.943	513.501	1684.07	528.258	319.393	1651.77	473.553	314.904	1632.93	661.826	218.019	1600.58
887	8.86	1059.79	1651.8	1621.61	864.999	1511.44	1548.39	776.862	1347.17	1581.98	1011.5	1356.12	1555.09	891.481	1479.69	1410.28	965.088	1152.1	1288.46	939.848	1492.32	1726.42	954.303	1137.3	1824.37	945.642	1058.74	1451.23	938.012	1040.77	1703.4	773.512	1094.64	1522.92	782.166	1081.63	1636.81	884.768	976.539	1398.02	1052.54	766.299	1445.8	1055.78	607.876	1447.8	1090.75	417.939	1466.25	1068.58	260.671	1480.23	1024.27	229.422	1495.08	1249.82	238.242	1522.66	886.484	959.698	1734.38	890.423	799.669	1712.39	802.38	602.039	1680.12	745.96	513.748	1684.62	526.798	329.749	1653.6	472.137	329.817	1635.02	650.689	218.453	1601.62
888	8.87	1059.54	1653.17	1621.21	864.895	1512.59	1547.84	777.213	1348.04	1581.13	1012	1357.75	1554.4	891.749	1481.26	1409.68	965.557	1153.98	1287.42	939.762	1493.41	1725.83	954.105	1138.7	1824.47	947	1060.51	1450.4	939.047	1041.15	1702.25	774.525	1095.63	1522.2	783.175	1082.07	1636.07	886.298	978.5	1396.87	1052.58	767.404	1445.55	1054.64	608.304	1446.9	1083.85	417.176	1465.91	1055.3	260.551	1479.95	1009.86	229.713	1494.63	1236.51	234.346	1522.44	888.021	959.563	1732.78	896.181	799.359	1711.5	813.132	600.579	1680.5	754.33	514.368	1685.19	527.324	340.773	1655.42	472.926	345.445	1637.07	641.281	219.405	1602.83
889	8.88	1059.24	1654.89	1620.95	864.7	1514.15	1547.43	777.443	1349.42	1580.36	1012.34	1359.7	1553.85	892.082	1483.24	1409.17	966.073	1156.43	1286.24	939.69	1494.85	1725.33	953.925	1140.5	1824.69	948.03	1062.57	1449.46	939.899	1041.99	1701	775.295	1097.03	1521.46	783.952	1082.96	1635.31	887.238	980.65	1395.73	1051.26	768.039	1444.7	1051.77	608.496	1445.9	1075.79	416.436	1465.45	1041.75	260.524	1479.71	995.461	229.916	1494.23	1222.86	231.644	1522.08	889.456	959.986	1731.22	902.297	799.668	1710.74	824.742	599.613	1680.94	763.901	515.418	1685.73	529.821	352.219	1657.17	475.877	361.335	1639.02	634.006	220.996	1604.24
890	8.89	1058.9	1656.95	1620.82	864.421	1516.13	1547.14	777.547	1351.31	1579.65	1012.52	1361.95	1553.41	892.469	1485.62	1408.74	966.635	1159.41	1284.95	939.596	1496.6	1724.93	953.766	1142.66	1824.99	948.705	1064.91	1448.41	940.577	1043.29	1699.66	775.811	1098.83	1520.73	784.503	1084.32	1634.56	887.558	982.97	1394.62	1048.55	768.17	1443.34	1047.09	608.461	1444.88	1066.56	415.723	1464.92	1028	260.559	1479.55	981.099	230.046	1493.93	1208.96	229.953	1521.69	890.786	960.981	1729.71	908.686	800.664	1710.13	836.995	599.27	1681.42	774.493	516.953	1686.21	534.22	363.79	1658.82	480.872	376.985	1640.82	629.24	223.314	1605.87
891	8.9	1058.51	1659.32	1620.85	864.07	1518.5	1546.95	777.526	1353.66	1578.98	1012.53	1364.49	1553.11	892.903	1488.38	1408.38	967.24	1162.86	1283.58	939.451	1498.64	1724.63	953.629	1145.12	1825.31	949.014	1067.51	1447.24	941.098	1045.06	1698.24	776.069	1101.04	1520.04	784.847	1086.14	1633.84	887.244	985.458	1393.57	1044.52	767.846	1441.58	1040.62	608.251	1443.88	1056.17	415.061	1464.36	1014.1	260.633	1479.48	966.784	230.122	1493.72	1194.88	229.061	1521.32	892.019	962.553	1728.29	915.275	802.407	1709.64	849.685	599.668	1681.92	785.916	519.022	1686.62	540.414	375.154	1660.35	487.735	391.874	1642.42	627.306	226.387	1607.73
892	8.91	1058.08	1661.99	1621.04	863.669	1521.23	1546.86	777.394	1356.43	1578.32	1012.41	1367.31	1552.91	893.376	1491.48	1408.08	967.888	1166.74	1282.19	939.228	1500.94	1724.45	953.513	1147.84	1825.6	948.956	1070.34	1445.96	941.481	1047.31	1696.77	776.075	1103.65	1519.41	785.011	1088.44	1633.19	886.302	988.113	1392.6	1039.29	767.179	1439.6	1032.46	607.94	1442.95	1044.72	414.488	1463.78	1000.07	260.732	1479.5	952.508	230.168	1493.62	1180.68	228.76	1521.02	893.167	964.7	1726.98	921.999	804.942	1709.25	862.624	600.9	1682.41	797.987	521.655	1686.96	548.271	385.966	1661.76	496.251	405.512	1643.82	628.439	230.156	1609.82
